<?xml version="1.0" encoding="utf-8"?>
<!-- Generator: Adobe Illustrator 21.0.0, SVG Export Plug-In . SVG Version: 6.00 Build 0)  -->
<svg version="1.1" id="Layer_1" xmlns="http://www.w3.org/2000/svg" xmlns:xlink="http://www.w3.org/1999/xlink" x="0px" y="0px"
	 viewBox="0 0 471.3 52.7" style="enable-background:new 0 0 471.3 52.7;" xml:space="preserve">
<style type="text/css">
	.st0{fill:url(#SVGID_1_);}
	.st1{fill:url(#SVGID_2_);}
	.st2{fill:url(#SVGID_3_);}
	.st3{fill:url(#SVGID_4_);}
	.st4{fill:url(#SVGID_5_);}
	.st5{fill:url(#SVGID_6_);}
	.st6{fill:url(#SVGID_7_);}
	.st7{fill:#231F20;}
	.st8{fill:url(#SVGID_8_);}
</style>
<g>
	<g>
		<linearGradient id="SVGID_1_" gradientUnits="userSpaceOnUse" x1="24.0848" y1="4.9312" x2="68.8893" y2="4.9312">
			<stop  offset="0" style="stop-color:#006F86"/>
			<stop  offset="7.445634e-02" style="stop-color:#007D8C"/>
			<stop  offset="0.2285" style="stop-color:#009495"/>
			<stop  offset="0.3743" style="stop-color:#00A19A"/>
			<stop  offset="0.5021" style="stop-color:#00A69C"/>
			<stop  offset="1" style="stop-color:#8BC53F"/>
		</linearGradient>
		<path class="st0" d="M46.4,6.8c0,0,0.1,0,0.1,0V3.1H5.3L4.7,3L7,6.8H46.4z"/>
		<linearGradient id="SVGID_2_" gradientUnits="userSpaceOnUse" x1="24.0848" y1="12.4614" x2="68.8893" y2="12.4614">
			<stop  offset="0" style="stop-color:#006F86"/>
			<stop  offset="7.445634e-02" style="stop-color:#007D8C"/>
			<stop  offset="0.2285" style="stop-color:#009495"/>
			<stop  offset="0.3743" style="stop-color:#00A19A"/>
			<stop  offset="0.5021" style="stop-color:#00A69C"/>
			<stop  offset="1" style="stop-color:#8BC53F"/>
		</linearGradient>
		<path class="st1" d="M30.3,14.3c0,0,0.1,0,0.1,0v-3.8H9.6l-0.7,0l2.3,3.8H30.3z"/>
		<linearGradient id="SVGID_3_" gradientUnits="userSpaceOnUse" x1="24.0848" y1="26.3333" x2="68.8893" y2="26.3333">
			<stop  offset="0" style="stop-color:#006F86"/>
			<stop  offset="7.445634e-02" style="stop-color:#007D8C"/>
			<stop  offset="0.2285" style="stop-color:#009495"/>
			<stop  offset="0.3743" style="stop-color:#00A19A"/>
			<stop  offset="0.5021" style="stop-color:#00A69C"/>
			<stop  offset="1" style="stop-color:#8BC53F"/>
		</linearGradient>
		<path class="st2" d="M46.4,3c-4.7,0-9,1.4-12.7,3.8h12.4c0.1,0,0.2,0,0.2,0c0.1,0,0.1,0,0.2,0h0.5v0c10.4,0.4,18.8,9,18.8,19.5
			c0,10.8-8.8,19.5-19.5,19.5s-19.5-8.8-19.5-19.5c0-0.6,0-1.2,0.1-1.7h-3.8c0,0.6-0.1,1.1-0.1,1.7c0,12.9,10.4,23.3,23.3,23.3
			s23.3-10.4,23.3-23.3S59.3,3,46.4,3z"/>
		<g>
			<linearGradient id="SVGID_4_" gradientUnits="userSpaceOnUse" x1="24.0848" y1="12.4581" x2="68.8893" y2="12.4581">
				<stop  offset="0" style="stop-color:#006F86"/>
				<stop  offset="7.445634e-02" style="stop-color:#007D8C"/>
				<stop  offset="0.2285" style="stop-color:#009495"/>
				<stop  offset="0.3743" style="stop-color:#00A19A"/>
				<stop  offset="0.5021" style="stop-color:#00A69C"/>
				<stop  offset="1" style="stop-color:#8BC53F"/>
			</linearGradient>
			<path class="st3" d="M31.1,14.3c1.1-1.4,2.4-2.7,3.9-3.8h-5.6c-1.1,1.2-2,2.4-2.8,3.8H31.1z"/>
			<linearGradient id="SVGID_5_" gradientUnits="userSpaceOnUse" x1="24.0848" y1="19.4743" x2="68.8893" y2="19.4743">
				<stop  offset="0" style="stop-color:#006F86"/>
				<stop  offset="7.445634e-02" style="stop-color:#007D8C"/>
				<stop  offset="0.2285" style="stop-color:#009495"/>
				<stop  offset="0.3743" style="stop-color:#00A19A"/>
				<stop  offset="0.5021" style="stop-color:#00A69C"/>
				<stop  offset="1" style="stop-color:#8BC53F"/>
			</linearGradient>
			<path class="st4" d="M24.7,18.1c-0.3,0.9-0.6,1.8-0.9,2.8h3.9c0.3-1,0.6-1.9,1.1-2.8H24.7z"/>
		</g>
		<linearGradient id="SVGID_6_" gradientUnits="userSpaceOnUse" x1="24.0848" y1="19.978" x2="68.8893" y2="19.978">
			<stop  offset="0" style="stop-color:#006F86"/>
			<stop  offset="7.445634e-02" style="stop-color:#007D8C"/>
			<stop  offset="0.2285" style="stop-color:#009495"/>
			<stop  offset="0.3743" style="stop-color:#00A19A"/>
			<stop  offset="0.5021" style="stop-color:#00A69C"/>
			<stop  offset="1" style="stop-color:#8BC53F"/>
		</linearGradient>
		<path class="st5" d="M27.2,21.9c-0.1-0.3,0.1-0.7,0.4-0.8v-3H14.3l-0.7,0l2.3,3.8H27.2z"/>
		<linearGradient id="SVGID_7_" gradientUnits="userSpaceOnUse" x1="24.0848" y1="19.9747" x2="68.8893" y2="19.9747">
			<stop  offset="0" style="stop-color:#006F86"/>
			<stop  offset="7.445634e-02" style="stop-color:#007D8C"/>
			<stop  offset="0.2285" style="stop-color:#009495"/>
			<stop  offset="0.3743" style="stop-color:#00A19A"/>
			<stop  offset="0.5021" style="stop-color:#00A69C"/>
			<stop  offset="1" style="stop-color:#8BC53F"/>
		</linearGradient>
		<path class="st6" d="M25.7,21.9h1.7c0.3-1.1,0.7-2.4,1.3-3.8L24.3,19l0.6,2.1L25.7,21.9z"/>
	</g>
	<g>
		<g>
			<path class="st7" d="M84.1,30.7L83,35h-5.3l4.4-16.5H98c1.1,0,1.9,0.1,2.6,0.3c0.7,0.2,1.2,0.5,1.5,0.9c0.3,0.4,0.5,1,0.5,1.6
				c0,0.7-0.1,1.5-0.4,2.4c-0.3,1-0.6,1.8-0.9,2.4c-0.3,0.6-0.7,1-1.1,1.4c-0.4,0.3-0.9,0.6-1.4,0.7s-1.1,0.3-1.7,0.5
				c0.5,0.1,0.9,0.2,1.3,0.3c0.4,0.1,0.7,0.2,1,0.4c0.3,0.2,0.4,0.5,0.5,0.9s0,1-0.2,1.7l-0.8,3h-5.3l0.6-2.2c0.2-0.7,0.2-1.2,0-1.6
				s-0.8-0.5-1.7-0.5H84.1z M85.2,26.7H93c0.1,0,0.2,0,0.3,0c0.1,0,0.2,0,0.3,0c0.6,0,1.1,0,1.5-0.1c0.4-0.1,0.7-0.2,0.9-0.4
				c0.2-0.2,0.4-0.4,0.5-0.7c0.1-0.3,0.2-0.7,0.4-1.1c0.1-0.4,0.2-0.8,0.1-1.1c0-0.3-0.1-0.5-0.3-0.6c-0.2-0.1-0.5-0.2-0.8-0.3
				c-0.4,0-0.8-0.1-1.4-0.1h-8.2L85.2,26.7z"/>
			<path class="st7" d="M123.1,18.4h5.3l-2.8,10.4c-0.4,1.6-1,2.9-1.9,3.8c-0.8,0.9-1.9,1.6-3.3,2c-0.8,0.2-1.7,0.4-2.8,0.4
				c-1.1,0-2.3,0.1-3.6,0.1c-1.4,0-2.7,0-3.9,0c-1.2,0-2.2-0.1-3-0.2s-1.6-0.3-2.2-0.5c-0.6-0.3-1-0.6-1.3-1.1
				c-0.3-0.5-0.4-1.1-0.4-1.9c0-0.8,0.1-1.7,0.4-2.8l2.7-10.2h5.3l-2.3,8.7c-0.2,0.7-0.3,1.3-0.4,1.7c-0.1,0.5-0.1,0.8,0,1.1
				c0.1,0.3,0.2,0.5,0.4,0.7c0.2,0.1,0.6,0.3,1,0.3c0.4,0.1,1,0.1,1.6,0.1c0.6,0,1.4,0,2.4,0c0.7,0,1.3,0,1.8,0c0.5,0,1,0,1.4-0.1
				c0.4,0,0.8-0.1,1.1-0.2c0.3-0.1,0.6-0.3,0.8-0.5c0.4-0.3,0.7-0.7,0.8-1.2c0.2-0.5,0.4-1.1,0.6-1.9L123.1,18.4z"/>
			<path class="st7" d="M154.9,18.4L150.5,35h-8.3l-7-12.4L131.9,35H127l4.4-16.5h8.3l7,12.4l3.3-12.4H154.9z"/>
			<path class="st7" d="M159.1,35l4.4-16.5h18.1l-1,3.9h-13l-0.9,3.2h12.3l-1,3.7h-12.3l-1.5,5.7H159.1z"/>
			<path class="st7" d="M180.3,28.3c0.4-1.6,0.8-2.9,1.1-4.1c0.3-1.1,0.8-2.1,1.3-2.9c0.5-0.8,1.1-1.4,1.8-1.8
				c0.7-0.5,1.7-0.8,2.9-1c0.8-0.1,2.2-0.2,4.3-0.2c2,0,4.7,0,8,0c1.1,0,2,0.1,2.7,0.3c0.7,0.2,1.3,0.5,1.8,0.9
				c0.4,0.4,0.7,0.9,0.9,1.5c0.1,0.6,0.2,1.4,0,2.3c-0.1,0.5-0.2,1.1-0.4,1.8c-0.2,0.7-0.4,1.6-0.7,2.6c-0.3,1.2-0.7,2.2-1.1,3.1
				c-0.4,0.8-0.8,1.5-1.4,2.1c-0.5,0.6-1.1,1-1.9,1.3c-0.7,0.3-1.6,0.5-2.5,0.7c-1,0.2-2.1,0.3-3.4,0.3c-1.3,0-2.8,0.1-4.5,0.1
				c-1.9,0-3.5-0.1-4.9-0.2c-1.3-0.1-2.4-0.4-3.1-0.8c-0.8-0.5-1.2-1.1-1.4-2.1C179.7,31.2,179.9,29.9,180.3,28.3z M186.2,26
				c-0.2,0.8-0.4,1.6-0.5,2.1c-0.1,0.6-0.2,1.1-0.2,1.4c0,0.4,0.1,0.7,0.3,0.9s0.5,0.3,0.9,0.4s0.9,0.2,1.5,0.2c0.6,0,1.4,0,2.3,0
				c1.8,0,3.2,0,4.2-0.1c1,0,1.8-0.2,2.3-0.5s1-0.7,1.2-1.4c0.3-0.6,0.6-1.5,0.9-2.7c0.3-1,0.4-1.7,0.5-2.3c0.1-0.6,0-1-0.3-1.2
				c-0.2-0.3-0.6-0.4-1.2-0.5c-0.6-0.1-1.4-0.1-2.4-0.1c-1.8,0-3.2,0-4.4,0s-2,0.1-2.6,0.3c-0.7,0.2-1.2,0.6-1.5,1.1
				C186.8,24.2,186.5,25,186.2,26z"/>
			<path class="st7" d="M210.8,30.7l-1.1,4.3h-5.3l4.4-16.5h15.9c1.1,0,1.9,0.1,2.6,0.3c0.7,0.2,1.2,0.5,1.5,0.9
				c0.3,0.4,0.5,1,0.5,1.6c0,0.7-0.1,1.5-0.4,2.4c-0.3,1-0.6,1.8-0.9,2.4c-0.3,0.6-0.7,1-1.1,1.4c-0.4,0.3-0.9,0.6-1.4,0.7
				s-1.1,0.3-1.7,0.5c0.5,0.1,0.9,0.2,1.3,0.3c0.4,0.1,0.7,0.2,1,0.4c0.3,0.2,0.4,0.5,0.5,0.9s0,1-0.2,1.7l-0.8,3h-5.3l0.6-2.2
				c0.2-0.7,0.2-1.2,0-1.6s-0.8-0.5-1.7-0.5H210.8z M211.8,26.7h7.8c0.1,0,0.2,0,0.3,0c0.1,0,0.2,0,0.3,0c0.6,0,1.1,0,1.5-0.1
				c0.4-0.1,0.7-0.2,0.9-0.4c0.2-0.2,0.4-0.4,0.5-0.7c0.1-0.3,0.2-0.7,0.4-1.1c0.1-0.4,0.2-0.8,0.1-1.1c0-0.3-0.1-0.5-0.3-0.6
				c-0.2-0.1-0.5-0.2-0.8-0.3c-0.4,0-0.8-0.1-1.4-0.1H213L211.8,26.7z"/>
			<path class="st7" d="M228.2,35l4.4-16.5h19.1l-1,3.7h-13.9L236,25h13l-0.9,3.3h-13l-0.8,2.9h13.9l-1,3.7H228.2z"/>
			<path class="st7" d="M278.5,18.4l-14,16.5h-6.6l-4.6-16.5h5.7l3.4,12.5l10.3-12.5H278.5z"/>
			<path class="st7" d="M275.6,35l4.4-16.5h19.1l-1,3.7h-13.9l-0.8,2.9h13l-0.9,3.3h-13l-0.8,2.9h13.9l-1,3.7H275.6z"/>
			<path class="st7" d="M303.9,30.7l-1.1,4.3h-5.3l4.4-16.5h15.9c1.1,0,1.9,0.1,2.6,0.3c0.7,0.2,1.2,0.5,1.5,0.9
				c0.3,0.4,0.5,1,0.5,1.6c0,0.7-0.1,1.5-0.4,2.4c-0.3,1-0.6,1.8-0.9,2.4c-0.3,0.6-0.7,1-1.1,1.4c-0.4,0.3-0.9,0.6-1.4,0.7
				c-0.5,0.2-1.1,0.3-1.7,0.5c0.5,0.1,0.9,0.2,1.3,0.3c0.4,0.1,0.7,0.2,1,0.4c0.3,0.2,0.4,0.5,0.5,0.9s0,1-0.2,1.7l-0.8,3h-5.3
				l0.6-2.2c0.2-0.7,0.2-1.2,0-1.6s-0.8-0.5-1.7-0.5H303.9z M305,26.7h7.8c0.1,0,0.2,0,0.3,0c0.1,0,0.2,0,0.3,0c0.6,0,1.1,0,1.5-0.1
				c0.4-0.1,0.7-0.2,0.9-0.4s0.4-0.4,0.5-0.7c0.1-0.3,0.2-0.7,0.4-1.1c0.1-0.4,0.2-0.8,0.1-1.1c0-0.3-0.1-0.5-0.3-0.6
				c-0.2-0.1-0.5-0.2-0.8-0.3c-0.4,0-0.8-0.1-1.4-0.1h-8.2L305,26.7z"/>
			<path class="st7" d="M345.4,23.5c0.1-0.4,0.1-0.7,0-0.9s-0.2-0.4-0.5-0.5c-0.3-0.1-0.6-0.2-1.1-0.2c-0.5,0-1.1,0-1.9,0
				c-0.1,0-0.2,0-0.3,0c-0.1,0-0.2,0-0.3,0c-1.1,0-2.1,0.1-2.8,0.1s-1.4,0-1.9,0.1s-0.9,0.2-1.1,0.4c-0.3,0.2-0.5,0.5-0.6,1
				c-0.1,0.4,0,0.7,0.2,0.9c0.3,0.2,0.7,0.3,1.2,0.3c0.8,0,1.5,0,2.2,0c0.7,0,1.3,0,1.9,0c0.4,0,0.7,0,1.1,0c0.4,0,0.8,0,1.1,0
				c1.4,0,2.6,0,3.7,0.1c1,0.1,1.8,0.3,2.4,0.6c0.6,0.3,1,0.8,1.1,1.5c0.1,0.7,0.1,1.6-0.3,2.9c-0.2,0.9-0.5,1.6-0.8,2.2
				c-0.3,0.6-0.7,1.1-1.2,1.5s-1,0.7-1.6,0.9s-1.3,0.4-2.1,0.4c-0.5,0-1.4,0.1-2.7,0.2c-1.3,0.1-3,0.1-5.1,0.1c-2,0-3.6-0.1-4.9-0.2
				c-1.2-0.1-2.1-0.4-2.6-0.8c-0.3-0.3-0.6-0.6-0.7-0.9c-0.1-0.3-0.2-0.7-0.1-1c0-0.4,0.1-0.8,0.2-1.2c0.1-0.4,0.2-0.9,0.4-1.4h5.2
				c0,0.2-0.1,0.4-0.2,0.6c-0.1,0.2-0.1,0.4,0,0.5c0,0.2,0.2,0.3,0.3,0.4c0.2,0.1,0.5,0.2,1,0.2c0.2,0,0.6,0,1.2,0.1
				c0.6,0,1.4,0,2.3,0c1.2,0,2.2,0,2.9,0c0.8,0,1.4-0.1,1.8-0.2c0.5-0.1,0.8-0.2,1-0.4s0.4-0.5,0.5-0.9c0.1-0.4,0.1-0.6,0-0.9
				c-0.1-0.2-0.3-0.4-0.5-0.4c-0.3-0.1-0.6-0.1-1-0.2c-0.4,0-0.8,0-1.3,0c-1.7,0-3.2,0-4.5,0c-1.3,0-2.4,0-3.4-0.1
				c-0.9-0.1-1.7-0.2-2.3-0.3c-0.6-0.2-1.1-0.4-1.4-0.8c-0.3-0.4-0.5-0.8-0.5-1.4c0-0.6,0.1-1.3,0.3-2.3c0.2-0.8,0.5-1.5,0.8-2.1
				s0.7-1.1,1.1-1.5c0.5-0.4,1-0.7,1.6-0.9s1.3-0.4,2.2-0.5c0.6-0.1,1.5-0.1,2.7-0.2s2.8-0.1,4.6-0.1c1,0,1.9,0,2.6,0
				c0.8,0,1.5,0,2,0.1c0.6,0.1,1.1,0.2,1.5,0.3c0.4,0.1,0.8,0.3,1.1,0.6c0.3,0.3,0.5,0.5,0.7,0.8c0.1,0.3,0.2,0.6,0.2,1
				c0,0.3,0,0.7-0.1,1.1c-0.1,0.4-0.2,0.8-0.3,1.3H345.4z"/>
			<path class="st7" d="M350.4,35l4.4-16.6h13.9c1.2,0,2.3,0.1,3.1,0.2c0.8,0.1,1.5,0.5,1.9,1c0.5,0.5,0.7,1.2,0.7,2
				c0,0.8-0.2,1.8-0.5,2.9c-0.3,1.2-0.7,2.2-1.1,3c-0.4,0.8-0.9,1.5-1.5,1.9c-0.6,0.5-1.4,0.8-2.2,1c-0.9,0.2-1.9,0.3-3.2,0.3
				c-0.2,0-0.4,0-0.5,0c-0.1,0-0.3,0-0.5,0h-8.1l-1.1,4.1H350.4z M357.8,26.8h8c0.8,0,1.4-0.2,1.9-0.5c0.4-0.3,0.7-0.9,1-1.7
				c0.2-0.8,0.2-1.4,0-1.7c-0.2-0.4-0.8-0.5-1.7-0.5h-8L357.8,26.8z"/>
			<path class="st7" d="M374.3,28.3c0.4-1.6,0.8-2.9,1.2-4.1c0.3-1.1,0.8-2.1,1.3-2.9c0.5-0.8,1.1-1.4,1.8-1.8
				c0.7-0.5,1.7-0.8,2.9-1c0.8-0.1,2.2-0.2,4.3-0.2c2,0,4.7,0,8,0c1.1,0,2,0.1,2.7,0.3c0.7,0.2,1.3,0.5,1.8,0.9
				c0.4,0.4,0.7,0.9,0.9,1.5c0.1,0.6,0.1,1.4,0,2.3c-0.1,0.5-0.2,1.1-0.4,1.8c-0.2,0.7-0.4,1.6-0.7,2.6c-0.3,1.2-0.7,2.2-1.1,3.1
				c-0.4,0.8-0.8,1.5-1.4,2.1c-0.5,0.6-1.1,1-1.9,1.3c-0.7,0.3-1.6,0.5-2.5,0.7c-1,0.2-2.1,0.3-3.4,0.3c-1.3,0-2.8,0.1-4.5,0.1
				c-1.9,0-3.5-0.1-4.9-0.2c-1.3-0.1-2.4-0.4-3.1-0.8c-0.8-0.5-1.2-1.1-1.4-2.1C373.7,31.2,373.9,29.9,374.3,28.3z M380.2,26
				c-0.2,0.8-0.4,1.6-0.5,2.1c-0.1,0.6-0.2,1.1-0.2,1.4c0,0.4,0.1,0.7,0.3,0.9s0.5,0.3,0.9,0.4s0.9,0.2,1.5,0.2s1.4,0,2.3,0
				c1.8,0,3.2,0,4.2-0.1c1,0,1.8-0.2,2.3-0.5s1-0.7,1.2-1.4c0.3-0.6,0.6-1.5,0.9-2.7c0.3-1,0.4-1.7,0.5-2.3c0.1-0.6,0-1-0.3-1.2
				c-0.2-0.3-0.6-0.4-1.2-0.5c-0.6-0.1-1.4-0.1-2.4-0.1c-1.8,0-3.2,0-4.4,0s-2,0.1-2.6,0.3c-0.7,0.2-1.2,0.6-1.5,1.1
				C380.8,24.2,380.5,25,380.2,26z"/>
			<path class="st7" d="M404.7,30.7l-1.1,4.3h-5.3l4.4-16.5h15.9c1.1,0,1.9,0.1,2.6,0.3c0.7,0.2,1.2,0.5,1.5,0.9
				c0.3,0.4,0.5,1,0.5,1.6c0,0.7-0.1,1.5-0.4,2.4c-0.3,1-0.6,1.8-0.9,2.4c-0.3,0.6-0.7,1-1.1,1.4c-0.4,0.3-0.9,0.6-1.4,0.7
				s-1.1,0.3-1.7,0.5c0.5,0.1,0.9,0.2,1.3,0.3c0.4,0.1,0.7,0.2,1,0.4c0.3,0.2,0.4,0.5,0.5,0.9s0,1-0.2,1.7l-0.8,3h-5.3l0.6-2.2
				c0.2-0.7,0.2-1.2,0-1.6s-0.8-0.5-1.7-0.5H404.7z M405.8,26.7h7.8c0.1,0,0.2,0,0.3,0c0.1,0,0.2,0,0.3,0c0.6,0,1.1,0,1.5-0.1
				c0.4-0.1,0.7-0.2,0.9-0.4c0.2-0.2,0.4-0.4,0.5-0.7c0.1-0.3,0.2-0.7,0.4-1.1c0.1-0.4,0.2-0.8,0.1-1.1c0-0.3-0.1-0.5-0.3-0.6
				c-0.2-0.1-0.5-0.2-0.8-0.3c-0.4,0-0.8-0.1-1.4-0.1H407L405.8,26.7z"/>
			<path class="st7" d="M437,22.6L433.7,35h-5.3l3.3-12.4h-7.7l1.1-4.1h20.5l-1.1,4.1H437z"/>
			<path class="st7" d="M461.2,23.5c0.1-0.4,0.1-0.7,0-0.9s-0.2-0.4-0.5-0.5c-0.3-0.1-0.6-0.2-1.1-0.2c-0.5,0-1.1,0-1.9,0
				c-0.1,0-0.2,0-0.3,0c-0.1,0-0.2,0-0.3,0c-1.1,0-2.1,0.1-2.8,0.1c-0.8,0-1.4,0-1.9,0.1s-0.9,0.2-1.1,0.4c-0.3,0.2-0.5,0.5-0.6,1
				c-0.1,0.4,0,0.7,0.2,0.9c0.3,0.2,0.6,0.3,1.2,0.3c0.8,0,1.5,0,2.2,0c0.7,0,1.3,0,1.9,0c0.4,0,0.7,0,1.1,0c0.4,0,0.8,0,1.1,0
				c1.4,0,2.6,0,3.7,0.1c1,0.1,1.8,0.3,2.4,0.6c0.6,0.3,1,0.8,1.1,1.5c0.1,0.7,0.1,1.6-0.3,2.9c-0.2,0.9-0.5,1.6-0.8,2.2
				c-0.3,0.6-0.7,1.1-1.2,1.5c-0.5,0.4-1,0.7-1.6,0.9s-1.3,0.4-2.1,0.4c-0.5,0-1.4,0.1-2.7,0.2c-1.3,0.1-3,0.1-5.1,0.1
				c-2,0-3.6-0.1-4.9-0.2c-1.2-0.1-2.1-0.4-2.6-0.8c-0.3-0.3-0.6-0.6-0.7-0.9c-0.1-0.3-0.2-0.7-0.1-1c0-0.4,0.1-0.8,0.2-1.2
				c0.1-0.4,0.2-0.9,0.4-1.4h5.2c0,0.2-0.1,0.4-0.2,0.6c-0.1,0.2-0.1,0.4,0,0.5c0,0.2,0.2,0.3,0.3,0.4c0.2,0.1,0.5,0.2,1,0.2
				c0.2,0,0.6,0,1.2,0.1c0.6,0,1.4,0,2.3,0c1.2,0,2.2,0,2.9,0c0.8,0,1.4-0.1,1.8-0.2c0.5-0.1,0.8-0.2,1-0.4c0.2-0.2,0.4-0.5,0.5-0.9
				c0.1-0.4,0.1-0.6,0-0.9c-0.1-0.2-0.3-0.4-0.5-0.4c-0.3-0.1-0.6-0.1-1-0.2c-0.4,0-0.8,0-1.3,0c-1.7,0-3.2,0-4.5,0
				c-1.3,0-2.4,0-3.4-0.1c-0.9-0.1-1.7-0.2-2.3-0.3s-1.1-0.4-1.4-0.8c-0.3-0.4-0.5-0.8-0.5-1.4c0-0.6,0.1-1.3,0.3-2.3
				c0.2-0.8,0.5-1.5,0.8-2.1s0.7-1.1,1.1-1.5c0.4-0.4,1-0.7,1.6-0.9s1.3-0.4,2.2-0.5c0.6-0.1,1.5-0.1,2.7-0.2s2.8-0.1,4.6-0.1
				c1,0,1.9,0,2.6,0c0.8,0,1.5,0,2,0.1c0.6,0.1,1.1,0.2,1.5,0.3c0.4,0.1,0.8,0.3,1.1,0.6c0.3,0.3,0.5,0.5,0.7,0.8
				c0.1,0.3,0.2,0.6,0.2,1c0,0.3,0,0.7-0.1,1.1c-0.1,0.4-0.2,0.8-0.3,1.3H461.2z"/>
		</g>
	</g>
	<linearGradient id="SVGID_8_" gradientUnits="userSpaceOnUse" x1="34.4047" y1="26.6664" x2="59.4201" y2="26.6664">
		<stop  offset="0" style="stop-color:#006F86"/>
		<stop  offset="7.445634e-02" style="stop-color:#007D8C"/>
		<stop  offset="0.2285" style="stop-color:#009495"/>
		<stop  offset="0.3743" style="stop-color:#00A19A"/>
		<stop  offset="0.5021" style="stop-color:#00A69C"/>
		<stop  offset="1" style="stop-color:#8BC53F"/>
	</linearGradient>
	<path class="st8" d="M58.9,19.6c-0.3-0.4-0.9-0.7-1.5-0.9c-0.7-0.2-1.5-0.3-2.6-0.3H40.6l2.5,4h8.2c0.6,0,1,0,1.4,0
		c0.4,0,0.6,0.1,0.8,0.3c0.2,0.1,0.3,0.3,0.3,0.6c0,0.3,0,0.6-0.1,1.1c-0.1,0.5-0.2,0.8-0.4,1.1c-0.1,0.3-0.3,0.5-0.5,0.7
		c-0.2,0.2-0.5,0.3-0.9,0.4c-0.4,0.1-0.9,0.1-1.5,0.1c0,0-0.1,0-0.1,0l0,0H36.6l-2.2,8.3h5.3l1.1-4.3h8.6c0.9,0,1.5,0.2,1.7,0.5
		c0.2,0.3,0.2,0.9,0,1.6l-0.6,2.2h5.3l0.8-3c0.2-0.8,0.3-1.3,0.2-1.7c-0.1-0.4-0.2-0.7-0.5-0.9c-0.3-0.2-0.6-0.4-1-0.4
		c-0.4-0.1-0.8-0.2-1.3-0.3c0.6-0.2,1.2-0.3,1.7-0.5c0.5-0.2,1-0.4,1.4-0.7c0.4-0.3,0.8-0.8,1.1-1.4c0.3-0.6,0.6-1.4,0.9-2.4
		c0.3-1,0.4-1.8,0.4-2.4C59.4,20.5,59.2,20,58.9,19.6z"/>
</g>
</svg>
